HIERARCHY
ROOT Hips
{
    OFFSET 0.0 0.0 0.0
    CHANNELS 6 Xposition Yposition Zposition Zrotation Xrotation Yrotation
    JOINT Spine
    {
        OFFSET 0.0 5.0 0.0
        CHANNELS 3 Zrotation Xrotation Yrotation
        JOINT Chest
        {
            OFFSET 0.0 5.0 0.0
            CHANNELS 3 Zrotation Xrotation Yrotation
            JOINT Neck
            {
                OFFSET 0.0 8.0 0.0
                CHANNELS 3 Zrotation Xrotation Yrotation
                JOINT Head
                {
                    OFFSET 0.0 5.0 0.0
                    CHANNELS 3 Zrotation Xrotation Yrotation
                    End Site
                    {
                        OFFSET 0.0 3.0 0.0
                    }
                }
            }
            JOINT LeftShoulder
            {
                OFFSET -5.0 0.0 0.0
                CHANNELS 3 Zrotation Xrotation Yrotation
                JOINT LeftArm
                {
                    OFFSET 0.0 -10.0 0.0
                    CHANNELS 3 Zrotation Xrotation Yrotation
                    JOINT LeftForeArm
                    {
                        OFFSET 0.0 -10.0 0.0
                        CHANNELS 3 Zrotation Xrotation Yrotation
                        End Site
                        {
                            OFFSET 0.0 -3.0 0.0
                        }
                    }
                }
            }
        }
    }
}

MOTION
Frames: 29
Frame Time: 0.033333
960.000000 445.000000 98.672120 0.000000 0.000000 0.000000 0.000000 0.000000 0.000000 23.025492 14.937596 0.000000 180.000000 -11.273910 0.000000 21.801409 5.961180 -0.000000 158.198591 -2.547840 30.000000 15.945396 -1.197318 0.000000 18.000000 0.247186 0.000000
1691.525230 140.756605 109.056312 0.000000 0.000000 0.000000 0.000000 0.000000 0.000000 -163.376529 12.332506 4.973798 16.623471 -11.575185 4.973798 -171.853121 -3.280883 3.759997 99.744051 -26.062651 29.763441 -171.126653 -3.663368 -3.759997 0.673538 0.368269 0.313953
1636.048050 128.802021 110.513814 0.000000 0.000000 0.000000 0.000000 0.000000 0.000000 157.904128 -33.979856 9.635073 -22.095872 -10.421631 9.635073 -171.936471 -3.506220 7.460697 -143.675701 6.657548 29.057495 -173.500805 -4.561540 -7.460697 0.570999 0.496058 0.626666
1578.156967 80.474526 117.595264 0.000000 0.000000 0.000000 0.000000 0.000000 0.000000 -139.519796 2.802531 13.690942 40.480204 -2.171852 13.690942 -174.507724 -3.921135 11.043737 119.111399 -1.454254 27.893295 -173.607258 -4.234218 -11.043737 0.461920 0.458494 0.936907
960.418757 444.998421 118.544406 0.000000 0.000000 0.000000 0.000000 0.000000 0.000000 25.077893 16.918152 16.886559 180.000000 2.384540 16.886559 23.861935 -5.107542 14.452610 156.138065 9.846300 26.289200 17.903699 -0.464617 -14.452610 18.000000 -1.406168 1.243449
960.523360 444.997533 120.527362 0.000000 0.000000 0.000000 0.000000 0.000000 0.000000 25.638906 -11.564734 19.021130 180.000000 -6.599372 19.021130 24.425035 10.780010 17.633558 155.574965 4.881567 24.270510 18.452907 -8.324146 -17.633558 18.000000 1.439973 1.545085
960.627905 444.996447 125.108674 0.000000 0.000000 0.000000 0.000000 0.000000 0.000000 26.219073 4.055574 19.960535 180.000000 13.335094 19.960535 25.006291 -0.504035 20.536413 154.993709 3.386200 21.869059 19.024920 2.826986 -20.536413 18.000000 -0.682797 1.840623
1126.242828 420.359820 124.141867 0.000000 0.000000 0.000000 0.000000 0.000000 0.000000 31.410514 2.328556 19.645745 -148.589486 0.331646 19.645745 32.280463 -3.171947 23.115397 -131.603972 -0.048316 19.122720 45.585331 0.160920 -23.115397 -13.449727 -0.178832 2.128896
1257.895088 650.549197 134.665518 0.000000 0.000000 0.000000 0.000000 0.000000 0.000000 25.073180 36.517180 18.096541 -154.926820 -34.011000 18.096541 46.260945 11.085924 25.329838 -154.651428 -6.511343 16.074804 27.339487 4.949354 -25.329838 -13.619892 -0.188782 2.408768
960.941083 444.992008 133.746124 0.000000 0.000000 0.000000 0.000000 0.000000 0.000000 28.072001 5.163135 15.410265 180.000000 7.970741 15.410265 26.849221 -13.950046 27.144812 153.150779 -2.201309 12.773379 20.864045 3.636412 -27.144812 18.000000 -0.233245 2.679134
1163.815842 547.748709 130.513488 0.000000 0.000000 0.000000 0.000000 0.000000 0.000000 117.162728 1.787637 11.755705 -62.837272 0.828525 11.755705 102.363764 -4.771415 28.531695 -47.376450 -4.631908 9.270510 104.768601 2.669847 -28.531695 -6.003489 0.202007 2.938926
961.149372 444.988063 138.397757 0.000000 0.000000 0.000000 0.000000 0.000000 0.000000 29.395983 2.228240 7.362491 180.000000 -2.435736 7.362491 28.146217 -5.202648 29.468618 151.853783 3.310407 5.621439 22.170006 2.028996 -29.468618 18.000000 -0.343985 3.187120
1136.717377 590.104480 142.186711 0.000000 0.000000 0.000000 0.000000 0.000000 0.000000 115.752126 5.742017 2.506665 -64.247874 0.905794 2.506665 73.638146 -5.515961 29.940802 -21.842452 -1.098199 1.883716 75.369282 -0.382834 -29.940802 -6.767207 0.582795 3.422736
1163.079758 634.077559 157.379758 0.000000 0.000000 0.000000 0.000000 0.000000 0.000000 132.174340 0.405925 -2.506665 -47.825660 -1.821723 -2.506665 94.255711 1.314664 29.940802 -149.364979 -7.028755 -1.883716 30.021641 6.085500 -29.940802 -5.096180 -1.554734 3.644843
961.460830 444.980668 161.148475 0.000000 0.000000 0.000000 0.000000 0.000000 0.000000 31.497152 -11.029862 -7.362491 180.000000 8.902551 -7.362491 30.152455 -20.109625 29.468618 149.847545 -0.352260 -5.621439 24.175589 0.078015 -29.468618 18.000000 -0.353529 3.852566
1097.449951 565.089898 140.623917 0.000000 0.000000 0.000000 0.000000 0.000000 0.000000 -119.219568 8.523695 -11.755705 60.780432 -4.382651 -11.755705 -150.180642 -6.780985 28.531695 48.804955 -1.098004 -9.270510 -149.874178 -6.470670 -28.531695 2.713854 0.537300 4.045085
1114.140244 528.302071 166.730700 0.000000 0.000000 0.000000 0.000000 0.000000 0.000000 -142.671523 -1.614267 -15.410265 37.328477 -1.260755 -15.410265 -177.395681 -0.519271 27.144812 34.687329 -3.796859 -12.773379 161.894167 3.123411 -27.144812 -0.910956 -0.053351 4.221640
1116.433640 479.728639 150.777400 0.000000 0.000000 0.000000 0.000000 0.000000 0.000000 -102.267481 0.793520 -18.096541 77.732519 -8.477548 -18.096541 -163.695626 4.089319 25.329838 38.575767 -3.222888 -16.074804 -176.001122 0.761285 -25.329838 0.706594 -0.038689 4.381533
1135.931282 466.493965 139.420288 0.000000 0.000000 0.000000 0.000000 0.000000 0.000000 -112.868406 6.510814 -19.645745 67.131594 -3.629168 -19.645745 -159.517862 2.471099 23.115397 36.204678 -2.615431 -19.122720 -154.426613 -5.559395 -23.115397 2.428729 0.540341 4.524135
1141.618767 467.420679 152.124411 0.000000 0.000000 0.000000 0.000000 0.000000 0.000000 -123.086385 -0.507951 -19.960535 56.913615 -4.190934 -19.960535 -154.885724 2.733694 20.536413 36.481623 -0.907863 -21.869059 -153.965441 -5.580478 -20.536413 2.446728 0.565170 4.648882
1150.647926 469.370956 158.283673 0.000000 0.000000 0.000000 0.000000 0.000000 0.000000 -43.953779 -13.807646 -19.021130 136.046221 1.784776 -19.021130 -154.327268 -7.143926 17.633558 60.745168 7.066527 -24.270510 -153.350642 -7.128390 -17.633558 2.386216 0.584121 4.755283
1151.529922 496.420240 146.332305 0.000000 0.000000 0.000000 0.000000 0.000000 0.000000 -116.362129 6.640837 -16.886559 63.637871 7.949686 -16.886559 -149.081043 0.457099 14.452610 35.941860 3.057811 -26.289200 -156.847177 0.192164 -14.452610 2.056513 0.143309 4.842916
1148.402367 515.713574 139.073680 0.000000 0.000000 0.000000 0.000000 0.000000 0.000000 -118.252650 7.657386 -13.690942 61.747350 5.324949 -13.690942 -138.082896 -1.612927 11.043737 -156.312677 -6.829189 -27.893295 21.649626 9.867089 -11.043737 2.962417 -0.206483 4.911436
1175.363617 533.368646 135.610866 0.000000 0.000000 0.000000 0.000000 0.000000 0.000000 -95.476638 -5.358110 -9.635073 84.523362 0.634798 -9.635073 -113.907461 4.252687 7.460697 -155.995907 -6.894251 -29.057495 12.512064 8.299356 -7.460697 -16.748794 -0.829936 4.960574
1199.533310 485.991104 128.974168 0.000000 0.000000 0.000000 0.000000 0.000000 0.000000 -100.003195 6.703988 -4.973798 79.996805 -11.584484 -4.973798 -86.083188 3.366550 3.759997 38.843754 -4.547143 -29.763441 -106.539452 1.192097 -3.759997 6.197806 -0.044459 4.990134
962.588190 444.938442 136.326527 0.000000 0.000000 0.000000 0.000000 0.000000 0.000000 39.579754 -20.713851 -0.000000 180.000000 22.560343 -0.000000 36.680773 -1.921059 0.000000 143.319227 -1.167194 -30.000000 29.388385 8.544152 -0.000000 18.000000 -1.129019 5.000000
1142.094727 445.716287 120.703054 0.000000 0.000000 0.000000 0.000000 0.000000 0.000000 -140.228454 -23.471781 4.973798 39.771546 -27.937736 4.973798 -156.118008 -5.531180 -3.759997 3.479189 3.487457 -29.763441 -158.005660 -6.125825 3.759997 2.150019 0.484863 4.990134
1164.005928 424.847746 130.627424 0.000000 0.000000 0.000000 0.000000 0.000000 0.000000 -84.241076 18.621257 9.635073 95.758924 -18.367227 9.635073 -156.181584 -5.786114 -7.460697 166.928360 -9.082347 -29.057495 -154.947270 -5.903095 7.460697 2.644196 0.624179 4.960574
1124.208755 418.286655 97.673769 0.000000 0.000000 0.000000 0.000000 0.000000 0.000000 -117.427077 -21.415025 13.690942 62.572923 44.991115 13.690942 -155.943063 -6.418293 -11.043737 14.023837 35.690399 -27.893295 -157.382674 -6.580158 11.043737 2.188130 0.563907 4.911436
